#N canvas 201 69 677 571 10;
#X obj 133 352 filters~;
#X obj 195 352 filters~;
#X obj 203 130 spigot;
#X obj 47 145 pack f f f;
#X obj 16 285 adc~ 1 2;
#X obj 153 163 s nedslag1 @hv_param;
#X obj 153 178 r nedslag1 @hv_param;
#X obj 91 31 s keystatus @hv_param;
#X obj 91 46 r keystatus @hv_param;
#X obj 261 352 filters~;
#X obj 185 211 f;
#N canvas 184 25 850 791 tables 0;
#X msg 76 77 \; t-Kat read tables/t-Kat.txt \; t-Tps read tables/t-Tps.txt
\; t-Dc_t read tables/t-Dc_t.txt \; t-HP_f read tables/t-HP_f.txt \;
t-LP_f read tables/t-LP_f.txt \; t-R1_g read tables/t-R1_g.txt \; t-R1_f
read tables/t-R1_f.txt \; t-R1_q read tables/t-R1_q.txt \; t-R2_g read
tables/t-R2_g.txt \; t-R2_f read tables/t-R2_f.txt \; t-R2_q read tables/t-R2_q.txt
\; t-P1_g read tables/t-P1_g.txt \; t-P1_f read tables/t-P1_f.txt \;
t-P1_q read tables/t-P1_q.txt \; t-V_a read tables/t-V_a.txt \; t-V_m
read tables/t-V_m.txt \; f-T_f read tables/f-T_f.txt \; f-Dc_f read
tables/f-Dc_f.txt \; f-Q_f read tables/f-Q_f.txt \; f-F_f read tables/f-F_f.txt
\; f-F_sw read tables/f-F_sw.txt \; f-Komp read tables/f-Komp.txt \;
f-Dist read tables/f-Dist.txt \; f-Dl_f read tables/f-Dl_f.txt \; f-Dl_t
read tables/f-Dl_t.txt \; f-Rev read tables/f-Rev.txt \; g-Komp read
tables/g-Komp.txt \; g-Dist read tables/g-Dist.txt \; g-Dl_f read tables/g-Dl_f.txt
\; g-Dl_t read tables/g-Dl_t.txt \; g-Rev read tables/g-Rev.txt;
#X msg 281 77 \; pd-graph_t-Kat array t-Kat 44 float 1 \, donecanvasdialog
1 -1 0 0 -1 1 1 100 14 100 100 \; pd-graph_t-Tps array t-Tps 44 float
1 \, donecanvasdialog 1 -1 0 0 -1 1 1 100 14 100 100 \; pd-graph_t-Dc_t
array t-Dc_t 44 float 1 \, donecanvasdialog 1 -1 0 0 -1 1 1 100 14
100 100 \; pd-graph_t-HP_f array t-HP_f 44 float 1 \, donecanvasdialog
1 -1 0 0 -1 1 1 100 14 100 100 \; pd-graph_t-LP_f array t-LP_f 44 float
1 \, donecanvasdialog 1 -1 0 0 -1 1 1 100 14 100 100 \; pd-graph_t-R1_g
array t-R1_g 44 float 1 \, donecanvasdialog 1 -1 0 0 -1 1 1 100 14
100 100 \; pd-graph_t-R1_f array t-R1_f 44 float 1 \, donecanvasdialog
1 -1 0 0 -1 1 1 100 14 100 100 \; pd-graph_t-R1_q array t-R1_q 44 float
1 \, donecanvasdialog 1 -1 0 0 -1 1 1 100 14 100 100 \; pd-graph_t-R2_g
array t-R2_g 44 float 1 \, donecanvasdialog 1 -1 0 0 -1 1 1 100 14
100 100 \; pd-graph_t-R2_f array t-R2_f 44 float 1 \, donecanvasdialog
1 -1 0 0 -1 1 1 100 14 100 100 \; pd-graph_t-R2_q array t-R2_q 44 float
1 \, donecanvasdialog 1 -1 0 0 -1 1 1 100 14 100 100 \; pd-graph_t-P1_g
array t-P1_g 44 float 1 \, donecanvasdialog 1 -1 0 0 -1 1 1 100 14
100 100 \; pd-graph_t-P1_f array t-P1_f 44 float 1 \, donecanvasdialog
1 -1 0 0 -1 1 1 100 14 100 100 \; pd-graph_t-P1_q array t-P1_q 44 float
1 \, donecanvasdialog 1 -1 0 0 -1 1 1 100 14 100 100 \; pd-graph_t-V_a
array t-V_a 44 float 1 \, donecanvasdialog 1 -1 0 0 -1 1 1 100 14 100
100 \; pd-graph_t-V_m array t-V_m 44 float 1 \, donecanvasdialog 1
-1 0 0 -1 1 1 100 14 100 100 \; pd-graph_f-T_f array f-T_f 8 float
1 \, donecanvasdialog 1 -1 0 0 -1 1 1 100 14 100 100 \; pd-graph_f-Dc_f
array f-Dc_f 8 float 1 \, donecanvasdialog 1 -1 0 0 -1 1 1 100 14 100
100 \; pd-graph_f-Q_f array f-Q_f 8 float 1 \, donecanvasdialog 1 -1
0 0 -1 1 1 100 14 100 100 \; pd-graph_f-F_f array f-F_f 8 float 1 \,
donecanvasdialog 1 -1 0 0 -1 1 1 100 14 100 100 \; pd-graph_f-F_sw
array f-F_sw 8 float 1 \, donecanvasdialog 1 -1 0 0 -1 1 1 100 14 100
100 \; pd-graph_f-Komp array f-Komp 8 float 1 \, donecanvasdialog 1
-1 0 0 -1 1 1 100 14 100 100 \; pd-graph_f-Dist array f-Dist 8 float
1 \, donecanvasdialog 1 -1 0 0 -1 1 1 100 14 100 100 \; pd-graph_f-Dl_f
array f-Dl_f 8 float 1 \, donecanvasdialog 1 -1 0 0 -1 1 1 100 14 100
100 \; pd-graph_f-Dl_t array f-Dl_t 8 float 1 \, donecanvasdialog 1
-1 0 0 -1 1 1 100 14 100 100 \; pd-graph_f-Rev array f-Rev 8 float
1 \, donecanvasdialog 1 -1 0 0 -1 1 1 100 14 100 100 \; pd-graph_g-Komp
array g-Komp 8 float 1 \, donecanvasdialog 1 -1 0 0 -1 1 1 100 14 100
100 \; pd-graph_g-Dist array g-Dist 8 float 1 \, donecanvasdialog 1
-1 0 0 -1 1 1 100 14 100 100 \; pd-graph_g-Dl_f array g-Dl_f 8 float
1 \, donecanvasdialog 1 -1 0 0 -1 1 1 100 14 100 100 \; pd-graph_g-Dl_t
array g-Dl_t 8 float 1 \, donecanvasdialog 1 -1 0 0 -1 1 1 100 14 100
100 \; pd-graph_g-Rev array g-Rev 8 float 1 \, donecanvasdialog 1 -1
0 0 -1 1 1 100 14 100 100, f 49;
#X obj 389 17 bng 15 250 50 0 empty empty empty 17 7 0 10 -262144 -1
-1;
#X obj 389 37 t b b b;
#X msg 599 69 \; pd-tables graph graph_t-Kat 0 -1 43 10 20 20 50 34
\, graph graph_t-Tps 0 -1 43 10 20 40 50 54 \, graph graph_t-Dc_t 0
-1 43 10 20 60 50 74 \, graph graph_t-HP_f 0 -1 43 10 20 80 50 94 \,
graph graph_t-LP_f 0 -1 43 10 20 100 50 114 \, graph graph_t-R1_g 0
-1 43 10 20 120 50 134 \, graph graph_t-R1_f 0 -1 43 10 20 140 50 154
\, graph graph_t-R1_q 0 -1 43 10 20 160 50 174 \, graph graph_t-R2_g
0 -1 43 10 20 180 50 194 \, graph graph_t-R2_f 0 -1 43 10 20 200 50
214 \, graph graph_t-R2_q 0 -1 43 10 20 220 50 234 \, graph graph_t-P1_g
0 -1 43 10 20 240 50 254 \, graph graph_t-P1_f 0 -1 43 10 20 260 50
274 \, graph graph_t-P1_q 0 -1 43 10 20 280 50 294 \, graph graph_t-V_a
0 -1 43 10 20 300 50 314 \, graph graph_t-V_m 0 -1 43 10 20 320 50
334 \, graph graph_f-T_f 0 -1 7 10 20 360 50 374 \, graph graph_f-Dc_f
0 -1 7 10 20 380 50 394 \, graph graph_f-Q_f 0 -1 7 10 20 400 50 414
\, graph graph_f-F_f 0 -1 7 10 20 420 50 434 \, graph graph_f-F_sw
0 -1 7 10 20 440 50 454 \, graph graph_f-Komp 0 -1 7 10 20 460 50 474
\, graph graph_f-Dist 0 -1 7 10 20 480 50 494 \, graph graph_f-Dl_f
0 -1 7 10 20 500 50 514 \, graph graph_f-Dl_t 0 -1 7 10 20 520 50 534
\, graph graph_f-Rev 0 -1 7 10 20 540 50 554 \, graph graph_g-Komp
0 -1 7 10 20 560 50 574 \, graph graph_g-Dist 0 -1 7 10 20 580 50 594
\, graph graph_g-Dl_f 0 -1 7 10 20 600 50 614 \, graph graph_g-Dl_t
0 -1 7 10 20 620 50 634 \, graph graph_g-Rev 0 -1 7 10 20 640 50 654
, f 44;
#N canvas 0 25 450 278 (subpatch) 0;
#X array t-Kat 44 float 1;
#A 0 1 3 1 2 1 1 1 1 2 2 0 2 3 2 5 0 2 2 0 6 4 6 5 0 3 7 0 5 4 3 3
0 2 5 0 4 4 4 3 0 4 0 2 3;
#X coords 0 0 1 1 100 14 0;
#X restore 20 20 graph;
#N canvas 0 22 450 278 (subpatch) 0;
#X array t-Tps 44 float 1;
#A 0 1 1 1 4 0 0 0 0 0 0 0 0 0 0 0 0 0 0 0 0 0 0 0 0 0 0 0 0 0 0 0
0 0 0 0 0 0 0 0 0 0 0 0 0;
#X coords 0 0 1 1 100 14 0;
#X restore 20 40 graph;
#N canvas 0 22 450 278 (subpatch) 0;
#X array t-Dc_t 44 float 1;
#A 0 500 200 500 1000 500 500 500 500 1000 1000 500 1000 200 1000 750
500 1000 1000 500 1500 500 1500 750 500 200 500 500 750 500 200 200
500 1000 750 500 500 500 500 200 500 500 500 1000 200;
#X coords 0 0 1 1 100 14 0;
#X restore 20 60 graph;
#N canvas 0 22 450 278 (subpatch) 0;
#X array t-HP_f 44 float 1;
#A 0 200 80 200 53 0 0 0 0 0 0 0 0 0 0 0 0 0 0 0 0 0 0 0 0 0 0 0 0
0 0 0 0 0 0 0 0 0 0 0 0 0 0 0 0;
#X coords 0 0 1 1 100 14 0;
#X restore 20 80 graph;
#N canvas 0 22 450 278 (subpatch) 0;
#X array t-LP_f 44 float 1;
#A 0 3000 10000 3000 6139 0 0 0 0 0 0 0 0 0 0 0 0 0 0 0 0 0 0 0 0 0
0 0 0 0 0 0 0 0 0 0 0 0 0 0 0 0 0 0 0;
#X coords 0 0 1 1 100 14 0;
#X restore 20 100 graph;
#N canvas 0 22 450 278 (subpatch) 0;
#X array t-R1_g 44 float 1;
#A 0 1 0 0 0 0 0 0 0 0 0 0 0 0 0 0 0 0 0 0 0 0 0 0 0 0 0 0 0 0 0 0
0 0 0 0 0 0 0 0 0 0 0 0 0;
#X coords 0 0 1 1 100 14 0;
#X restore 20 120 graph;
#N canvas 0 22 450 278 (subpatch) 0;
#X array t-R1_f 44 float 1;
#A 0 455 0 0 0 0 0 0 0 0 0 0 0 0 0 0 0 0 0 0 0 0 0 0 0 0 0 0 0 0 0
0 0 0 0 0 0 0 0 0 0 0 0 0 0;
#X coords 0 0 1 1 100 14 0;
#X restore 20 140 graph;
#N canvas 0 22 450 278 (subpatch) 0;
#X array t-R1_q 44 float 1;
#A 0 1 2 1 3 1 1 1 1 3 3 1 3 2 3 5 1 3 3 1 50 10 50 5 1 2 7 1 5 10
2 2 1 3 5 1 10 10 10 2 1 10 1 3 2;
#X coords 0 0 1 1 100 14 0;
#X restore 20 160 graph;
#N canvas 0 22 450 278 (subpatch) 0;
#X array t-R2_g 44 float 1;
#A 0 1 0 0 0 0 0 0 0 0 0 0 0 0 0 0 0 0 0 0 0 0 0 0 0 0 0 0 0 0 0 0
0 0 0 0 0 0 0 0 0 0 0 0 0;
#X coords 0 0 1 1 100 14 0;
#X restore 20 180 graph;
#N canvas 0 22 450 278 (subpatch) 0;
#X array t-R2_f 44 float 1;
#A 0 241 0 0 0 0 0 0 0 0 0 0 0 0 0 0 0 0 0 0 0 0 0 0 0 0 0 0 0 0 0
0 0 0 0 0 0 0 0 0 0 0 0 0 0;
#X coords 0 0 1 1 100 14 0;
#X restore 20 200 graph;
#N canvas 0 22 450 278 (subpatch) 0;
#X array t-R2_q 44 float 1;
#A 0 1 3 1 3 1 1 1 1 3 3 1 0 0 0 0 0 0 0 0 0 0 0 0 0 0 0 0 0 0 0 0
0 0 0 0 0 0 0 0 0 0 0 0 0;
#X coords 0 0 1 1 100 14 0;
#X restore 20 220 graph;
#N canvas 0 22 450 278 (subpatch) 0;
#X array t-P1_g 44 float 1;
#A 0 1 0 0 0 0 0 0 0 0 0 0 0 0 0 0 0 0 0 0 0 0 0 0 0 0 0 0 0 0 0 0
0 0 0 0 0 0 0 0 0 0 0 0 0;
#X coords 0 0 1 1 100 14 0;
#X restore 20 240 graph;
#N canvas 0 25 450 278 (subpatch) 0;
#X array t-P1_f 44 float 1;
#A 0 1241 0 0 0 0 0 0 0 0 0 0 0 0 0 0 0 0 0 0 0 0 0 0 0 0 0 0 0 0 0
0 0 0 0 0 0 0 0 0 0 0 0 0 0;
#X coords 0 0 1 1 100 14 0;
#X restore 20 260 graph;
#N canvas 0 22 450 278 (subpatch) 0;
#X array t-P1_q 44 float 1;
#A 0 0 0 0 0 0 0 0 0 0 0 0 0 0 0 0 0 0 0 0 0 0 0 0 0 0 0 0 0 0 0 0
0 0 0 0 0 0 0 0 0 0 0 0 0;
#X coords 0 0 1 1 100 14 0;
#X restore 20 280 graph;
#N canvas 0 22 450 278 (subpatch) 0;
#X array t-V_a 44 float 1;
#A 0 0 1 0 0 0 0 0 0 1 1 0 0 0 0 0 0 1 1 0 0 0 0 0 0 1 1 0 0 0 0 0
0 1 1 0 0 0 0 0 0 0 0 0 1;
#X coords 0 0 1 1 100 14 0;
#X restore 20 300 graph;
#N canvas 0 22 450 278 (subpatch) 0;
#X array t-V_m 44 float 1;
#A 0 0 12 0 12 0 0 0 0 5 2 0 2 0 5 0 0 1 0 0 0 0 1 0 0 0 -1 0 -2 0
-1 0 0 -2 -5 0 -12 0 -5 0 0 0 0 0 -12;
#X coords 0 0 1 1 100 14 0;
#X restore 20 320 graph;
#N canvas 0 22 450 278 (subpatch) 0;
#X array f-T_f 8 float 1;
#A 0 1 1 1 1 1 1 1 1;
#X coords 0 0 1 1 100 14 0;
#X restore 20 360 graph;
#N canvas 0 22 450 278 (subpatch) 0;
#X array f-Dc_f 8 float 1;
#A 0 1 1 1 1 1 1 1 1;
#X coords 0 0 1 1 100 14 0;
#X restore 20 380 graph;
#N canvas 0 22 450 278 (subpatch) 0;
#X array f-Q_f 8 float 1;
#A 0 1 1 1 1 1 1 1 1;
#X coords 0 0 1 1 100 14 0;
#X restore 20 400 graph;
#N canvas 0 22 450 278 (subpatch) 0;
#X array f-F_f 8 float 1;
#A 0 1 1 1 1 1 1 1 1;
#X coords 0 0 1 1 100 14 0;
#X restore 20 420 graph;
#N canvas 0 22 450 278 (subpatch) 0;
#X array f-F_sw 8 float 1;
#A 0 0 0 0 0 0 0 0 0;
#X coords 0 0 1 1 100 14 0;
#X restore 20 440 graph;
#N canvas 0 22 450 278 (subpatch) 0;
#X array f-Komp 8 float 1;
#A 0 0 0 0 0 0 0 0 0;
#X coords 0 0 1 1 100 14 0;
#X restore 20 460 graph;
#N canvas 0 25 450 278 (subpatch) 0;
#X array f-Dist 8 float 1;
#A 0 1 1 1 1 1 1 1 1;
#X coords 0 0 1 1 100 14 0;
#X restore 20 480 graph;
#N canvas 0 22 450 278 (subpatch) 0;
#X array f-Dl_f 8 float 1;
#A 0 1 1 1 1 1 1 1 1;
#X coords 0 0 1 1 100 14 0;
#X restore 20 500 graph;
#N canvas 0 22 450 278 (subpatch) 0;
#X array f-Dl_t 8 float 1;
#A 0 0 0 0 0 0 0 0 0;
#X coords 0 0 1 1 100 14 0;
#X restore 20 520 graph;
#N canvas 0 22 450 278 (subpatch) 0;
#X array f-Rev 8 float 1;
#A 0 1 1 1 1 1 1 1 1;
#X coords 0 0 1 1 100 14 0;
#X restore 20 540 graph;
#N canvas 0 22 450 278 (subpatch) 0;
#X array g-Komp 8 float 1;
#A 0 1 1 2 2 3 5 3 6;
#X coords 0 0 1 1 100 14 0;
#X restore 20 560 graph;
#N canvas 0 22 450 278 (subpatch) 0;
#X array g-Dist 8 float 1;
#A 0 1 3 3 5 3 2 4 7;
#X coords 0 0 1 1 100 14 0;
#X restore 20 580 graph;
#N canvas 0 22 450 278 (subpatch) 0;
#X array g-Dl_f 8 float 1;
#A 0 1 1 1 1 1 1 1 1;
#X coords 0 0 1 1 100 14 0;
#X restore 20 600 graph;
#N canvas 0 22 450 278 (subpatch) 0;
#X array g-Dl_t 8 float 1;
#A 0 1 -3 -1 0 0 0 0 0;
#X coords 0 0 1 1 100 14 0;
#X restore 20 620 graph;
#N canvas 0 22 450 278 (subpatch) 0;
#X array g-Rev 8 float 1;
#A 0 0 0 0 0 0 0 0 0;
#X coords 0 0 1 1 100 14 0;
#X restore 20 640 graph;
#X connect 2 0 3 0;
#X connect 3 0 0 0;
#X connect 3 1 1 0;
#X connect 3 2 4 0;
#X restore 268 70 pd tables;
#X obj 90 83 poly 3 1;
#X obj 48 182 route 1 2 3;
#X obj 184 237 route 1 2 3;
#X obj 80 404 +~ 1;
#X obj 25 431 /~;
#X obj 55 431 /~;
#X obj 89 485 dac~ 1 2 3 4;
#X obj 335 135 s xkeystatus @hv_param;
#X obj 335 150 r xkeystatus @hv_param;
#X obj 335 170 print xkeystatus;
#X obj 217 211 print nedslag1;
#X obj 91 66 print key;
#X connect 0 0 15 0;
#X connect 0 1 18 0;
#X connect 0 2 18 1;
#X connect 1 0 15 0;
#X connect 1 1 18 0;
#X connect 1 2 18 1;
#X connect 2 0 10 1;
#X connect 3 0 13 0;
#X connect 4 0 16 0;
#X connect 4 0 0 0;
#X connect 4 0 18 2;
#X connect 4 0 9 0;
#X connect 4 0 1 0;
#X connect 4 1 17 0;
#X connect 4 1 0 1;
#X connect 4 1 18 3;
#X connect 4 1 9 1;
#X connect 4 1 1 1;
#X connect 6 0 10 0;
#X connect 8 0 12 0;
#X connect 8 0 23 0;
#X connect 9 0 15 0;
#X connect 9 1 18 0;
#X connect 9 2 18 1;
#X connect 10 0 14 0;
#X connect 12 0 2 0;
#X connect 12 0 3 0;
#X connect 12 1 3 1;
#X connect 12 2 2 1;
#X connect 12 2 3 2;
#X connect 13 0 0 2;
#X connect 13 1 1 2;
#X connect 13 2 9 2;
#X connect 14 0 0 3;
#X connect 14 1 1 3;
#X connect 14 2 9 3;
#X connect 15 0 17 1;
#X connect 15 0 16 1;
#X connect 16 0 18 0;
#X connect 17 0 18 1;
#X connect 20 0 21 0;
