#N canvas 48 97 995 690 10;
#X obj 143 352 lop~;
#X obj 144 375 hip~;
#X obj 143 642 outlet~;
#X obj 147 183 *~;
#X obj 152 45 inlet~;
#X obj 585 17 inlet;
#X obj 710 37 inlet;
#X obj 242 247 reson, f 7;
#X obj 322 246 reson, f 7;
#X obj 148 245 peak, f 7;
#X obj 710 57 t b b;
#X obj 350 52 inlet~;
#X obj 349 181 *~;
#X obj 342 355 lop~;
#X obj 343 378 hip~;
#X obj 567 102 spigot;
#X obj 585 38 unpack f f;
#X obj 642 84 == 0;
#X obj 609 102 spigot;
#N canvas 0 25 450 300 transposeramp 0;
#X obj 78 179 line~;
#X obj 78 137 /;
#X obj 78 95 t f f;
#X obj 123 117 - 1;
#X obj 78 199 outlet~;
#X obj 49 74 sel 1;
#X msg 48 158 0;
#X obj 78 116 * 1500;
#X msg 78 158 0 \, 1500 \$1;
#X obj 49 10 r \$0note;
#X obj 142 11 r \$0kat;
#X obj 142 33 tabread f-T_f;
#X obj 49 31 tabread t-Tps;
#X obj 49 51 *;
#X connect 0 0 4 0;
#X connect 1 0 8 0;
#X connect 2 0 7 0;
#X connect 2 1 3 0;
#X connect 3 0 1 1;
#X connect 5 0 6 0;
#X connect 5 1 2 0;
#X connect 6 0 0 0;
#X connect 7 0 1 0;
#X connect 8 0 0 0;
#X connect 9 0 12 0;
#X connect 10 0 11 0;
#X connect 11 0 13 1;
#X connect 12 0 13 0;
#X connect 13 0 5 0;
#X restore 227 94 pd transposeramp;
#X obj 153 70 delwrite~ \$0-trpdelay_l 1500;
#X obj 347 73 delwrite~ \$0-trpdelay_r 1500;
#X obj 152 120 delread4~ \$0-trpdelay_l 1500;
#X obj 349 121 delread4~ \$0-trpdelay_r 1500;
#X obj 635 122 s \$0noteoff;
#X obj 558 228 s \$0note;
#X obj 798 50 inlet;
#X obj 724 87 timer;
#X obj 724 107 s \$0vel1;
#X obj 710 129 s \$0trig1;
#X obj 610 122 b;
#X obj 610 142 s \$0offbang;
#X obj 578 206 s \$0onbang;
#X obj 443 286 r \$0note;
#X obj 81 184 outlet~;
#N canvas 361 57 989 674 envelopes 0;
#X obj 337 25 r \$0note;
#X obj 38 187 line~;
#X obj 286 205 r \$0ve1;
#X msg 38 133 0;
#X obj 38 156 pack f f;
#X obj 3 210 outlet~;
#X obj 38 111 r \$0offbang;
#X obj 286 230 / 5;
#X obj 286 303 mod.vline~;
#X msg 286 281 1 \$1 \, 0 \$2 \$1;
#X obj 289 361 outlet~;
#X obj 349 382 r \$0note;
#X obj 447 362 outlet~;
#X obj 289 335 *~;
#X obj 286 254 pack f f;
#X obj 447 338 *~;
#X obj 114 123 r \$0onbang;
#X obj 427 584 line~;
#X obj 427 493 - 1;
#X obj 427 535 clip 0 10;
#X obj 427 513 sqrt;
#X obj 399 253 t f b;
#X obj 475 487 f;
#X obj 598 585 line~;
#X obj 598 494 - 1;
#X obj 598 536 clip 0 10;
#X obj 598 514 sqrt;
#X obj 646 491 f;
#X obj 427 604 outlet~;
#X obj 598 607 outlet~;
#X obj 330 586 line~;
#X obj 501 587 line~;
#X obj 330 606 outlet~;
#X obj 501 609 outlet~;
#X obj 105 367 sig~;
#X obj 104 388 outlet~;
#X obj 162 373 - 1;
#X obj 162 415 clip 0 10;
#X obj 162 393 sqrt;
#X obj 163 490 line~;
#X obj 204 383 pack f f;
#X obj 163 509 outlet~;
#X obj 100 269 r \$0note;
#X obj 226 415 r \$0offbang;
#X obj 226 435 f;
#X msg 226 455 0 \$1;
#X obj 67 488 line~;
#X obj 67 507 outlet~;
#X obj 11 372 / 10;
#X obj 66 419 r \$0onbang;
#X obj 66 439 f;
#X obj 418 122 tabread t-R1_g;
#X obj 519 122 tabread t-R2_g;
#X obj 13 346 tabread t-P1_g;
#X obj 100 303 tabread t-P1_f;
#X obj 592 300 r \$0kat;
#X obj 514 353 tabread f-F_f;
#X obj 614 357 tabread f-Q_f;
#X obj 324 95 tabread f-Dc_f;
#X obj 325 74 r \$0kat;
#X obj 144 205 r \$0kat;
#X obj 132 229 tabread f-F_f;
#X obj 181 256 tabread f-Q_f;
#X obj 314 48 tabread t-Dc_t;
#X obj 309 114 *;
#X obj 425 415 tabread t-R1_q;
#X obj 329 419 tabread t-R1_f;
#X obj 615 415 tabread t-R2_q;
#X obj 521 417 tabread t-R2_f;
#X obj 426 450 *;
#X obj 326 451 *;
#X obj 602 449 *;
#X obj 525 450 *;
#X obj 100 323 *;
#X obj 183 326 tabread t-P1_q;
#X obj 184 347 *;
#X obj 646 457 r \$0trig1;
#X msg 646 511 \$1 10;
#X msg 475 510 \$1 10;
#X msg 427 559 0 \, \$1 200;
#X msg 503 562 \$1 10;
#X msg 331 559 \$1 10;
#X msg 598 560 0 \, \$1 200;
#X msg 66 459 \$1 15;
#X msg 11 392 0 \, \$1 50;
#X msg 425 279 0 10 \, 0.1 125 10;
#X msg 115 156 1 50;
#X obj 227 73 print t-dc_t;
#X connect 0 0 51 0;
#X connect 0 0 52 0;
#X connect 0 0 63 0;
#X connect 1 0 5 0;
#X connect 2 0 7 0;
#X connect 3 0 4 0;
#X connect 4 0 1 0;
#X connect 6 0 3 0;
#X connect 7 0 14 0;
#X connect 7 0 40 0;
#X connect 8 0 13 0;
#X connect 8 0 15 0;
#X connect 9 0 8 0;
#X connect 11 0 65 0;
#X connect 11 0 68 0;
#X connect 11 0 67 0;
#X connect 11 0 66 0;
#X connect 13 0 10 0;
#X connect 14 0 9 0;
#X connect 15 0 12 0;
#X connect 16 0 86 0;
#X connect 17 0 28 0;
#X connect 18 0 20 0;
#X connect 19 0 79 0;
#X connect 20 0 19 0;
#X connect 21 0 13 1;
#X connect 21 1 85 0;
#X connect 22 0 78 0;
#X connect 23 0 29 0;
#X connect 24 0 26 0;
#X connect 25 0 82 0;
#X connect 26 0 25 0;
#X connect 27 0 77 0;
#X connect 30 0 32 0;
#X connect 31 0 33 0;
#X connect 34 0 35 0;
#X connect 36 0 38 0;
#X connect 37 0 39 0;
#X connect 38 0 37 0;
#X connect 39 0 41 0;
#X connect 40 0 39 0;
#X connect 42 0 53 0;
#X connect 42 0 54 0;
#X connect 42 0 74 0;
#X connect 43 0 44 0;
#X connect 44 0 45 0;
#X connect 45 0 39 0;
#X connect 45 0 46 0;
#X connect 46 0 47 0;
#X connect 48 0 84 0;
#X connect 49 0 50 0;
#X connect 50 0 83 0;
#X connect 51 0 21 0;
#X connect 52 0 15 1;
#X connect 53 0 48 0;
#X connect 53 0 50 1;
#X connect 54 0 73 0;
#X connect 55 0 56 0;
#X connect 55 0 57 0;
#X connect 56 0 70 1;
#X connect 56 0 72 1;
#X connect 57 0 69 1;
#X connect 57 0 71 1;
#X connect 58 0 64 1;
#X connect 59 0 58 0;
#X connect 60 0 61 0;
#X connect 60 0 62 0;
#X connect 61 0 73 1;
#X connect 62 0 75 1;
#X connect 63 0 64 0;
#X connect 64 0 4 1;
#X connect 64 0 14 1;
#X connect 64 0 44 1;
#X connect 65 0 69 0;
#X connect 66 0 70 0;
#X connect 67 0 71 0;
#X connect 68 0 72 0;
#X connect 69 0 18 0;
#X connect 69 0 22 1;
#X connect 70 0 81 0;
#X connect 71 0 24 0;
#X connect 71 0 27 1;
#X connect 72 0 80 0;
#X connect 73 0 34 0;
#X connect 74 0 75 0;
#X connect 75 0 36 0;
#X connect 75 0 40 1;
#X connect 76 0 22 0;
#X connect 76 0 27 0;
#X connect 77 0 23 0;
#X connect 78 0 17 0;
#X connect 79 0 17 0;
#X connect 80 0 31 0;
#X connect 81 0 30 0;
#X connect 82 0 23 0;
#X connect 83 0 46 0;
#X connect 84 0 46 0;
#X connect 85 0 8 0;
#X connect 86 0 1 0;
#X restore 177 142 pd envelopes;
#X f 26;
#X obj 596 185 s \$0kat;
#X obj 336 627 outlet~;
#N canvas 717 261 450 300 dist 0;
#X obj 48 53 inlet~;
#X obj 48 73 *~;
#X obj 48 95 hv.tanh~;
#X obj 48 119 /~;
#X obj 48 139 outlet~;
#X obj 153 51 inlet~;
#X obj 153 71 sqrt~;
#X connect 0 0 1 0;
#X connect 1 0 2 0;
#X connect 2 0 3 0;
#X connect 3 0 4 0;
#X connect 5 0 1 1;
#X connect 5 0 6 0;
#X connect 6 0 3 1;
#X restore 140 458 pd dist;
#N canvas 717 261 450 300 dist 0;
#X obj 48 53 inlet~;
#X obj 48 73 *~;
#X obj 48 95 hv.tanh~;
#X obj 48 119 /~;
#X obj 48 139 outlet~;
#X obj 153 51 inlet~;
#X obj 153 71 sqrt~;
#X connect 0 0 1 0;
#X connect 1 0 2 0;
#X connect 2 0 3 0;
#X connect 3 0 4 0;
#X connect 5 0 1 1;
#X connect 5 0 6 0;
#X connect 6 0 3 1;
#X restore 339 458 pd dist;
#X obj 144 409 hv.compressor~;
#X obj 143 432 *~;
#X obj 343 406 hv.compressor~;
#X obj 343 428 *~;
#N canvas 0 25 450 300 distparam 0;
#X obj 72 48 r \$0kat;
#X msg 72 168 \$1 50;
#X obj 72 188 line~;
#X obj 72 208 outlet~;
#X obj 72 68 t f f;
#X obj 72 129 *;
#X obj 99 91 tabread g-Dist;
#X obj 72 109 tabread f-Dist;
#X obj 72 148 clip 0.1 100;
#X obj 218 238 print distval;
#X connect 0 0 4 0;
#X connect 1 0 2 0;
#X connect 2 0 3 0;
#X connect 4 0 7 0;
#X connect 4 1 6 0;
#X connect 5 0 8 0;
#X connect 6 0 5 1;
#X connect 7 0 5 0;
#X connect 8 0 1 0;
#X restore 251 432 pd distparam;
#N canvas 605 126 455 300 kompparam 0;
#X obj 22 3 r \$0kat;
#X obj 23 124 * 3;
#X msg 22 167 threshold \$1;
#X msg 133 189 ratio \$1;
#X obj 22 209 outlet;
#X obj 229 162 dbtorms;
#X msg 229 182 \$1 50;
#X obj 229 202 line~;
#X obj 229 222 outlet~;
#X obj 133 164 exp;
#X obj 133 144 / 3.5;
#X obj 22 64 tabread g-Komp;
#X obj 49 43 tabread f-Komp;
#X obj 22 84 +;
#X obj 22 23 t f f;
#X obj 21 103 clip 0 10;
#X obj 228 143 + 100;
#X connect 0 0 14 0;
#X connect 1 0 2 0;
#X connect 1 0 16 0;
#X connect 2 0 4 0;
#X connect 3 0 4 0;
#X connect 5 0 6 0;
#X connect 6 0 7 0;
#X connect 7 0 8 0;
#X connect 9 0 3 0;
#X connect 10 0 9 0;
#X connect 11 0 13 0;
#X connect 12 0 13 1;
#X connect 13 0 15 0;
#X connect 14 0 11 0;
#X connect 14 1 12 0;
#X connect 15 0 1 0;
#X connect 15 0 10 0;
#X connect 16 0 5 0;
#X restore 257 383 pd kompparam;
#X obj 151 557 delwrite~ \$0-delayline_l 800;
#X obj 353 561 delwrite~ \$0-delayline_r 800;
#X obj 596 165 tabread t-Kat;
#N canvas 0 25 238 196 F_swap 0;
#X obj 59 19 r \$0kat;
#X obj 25 93 *~;
#X obj 60 92 *~;
#X obj 99 92 *~;
#X obj 134 91 *~;
#X obj 59 65 == 0;
#X obj 96 65 != 0;
#X obj 11 64 inlet~;
#X obj 133 63 inlet~;
#X obj 24 127 outlet~;
#X obj 107 129 outlet~;
#X obj 59 40 tabread f-F_sw;
#X connect 0 0 11 0;
#X connect 1 0 9 0;
#X connect 2 0 10 0;
#X connect 3 0 9 0;
#X connect 4 0 10 0;
#X connect 5 0 1 1;
#X connect 5 0 4 1;
#X connect 6 0 2 1;
#X connect 6 0 3 1;
#X connect 7 0 1 0;
#X connect 7 0 2 0;
#X connect 8 0 3 0;
#X connect 8 0 4 0;
#X connect 11 0 5 0;
#X connect 11 0 6 0;
#X restore 268 179 pd F_swap;
#X f 10;
#X obj 557 122 t f b f;
#X obj 641 58 t f b;
#X obj 372 310 tabread t-LP_f;
#X obj 476 311 tabread t-HP_f;
#X obj 102 530 *~;
#X obj 311 531 *~;
#N canvas 547 126 513 300 dlyparam 0;
#X obj 118 26 r \$0kat;
#X obj 118 180 line~ \$1 50;
#X obj 118 200 outlet~;
#X obj 11 238 outlet;
#X obj 117 70 tabread g-Dl_f;
#X obj 118 46 t f f;
#X obj 153 88 tabread f-Dl_f;
#X obj 26 94 tabread f-Dl_t;
#X obj 11 72 tabread g-Dl_t;
#X obj 11 115 +;
#X obj 11 136 clip -3 3;
#X obj 11 197 pow;
#X obj 11 156 t b f;
#X msg 11 176 2;
#X obj 11 217 * 100;
#X obj 118 157 clip 0 0.75;
#X obj 118 117 *;
#X connect 0 0 5 0;
#X connect 1 0 2 0;
#X connect 4 0 16 0;
#X connect 5 0 4 0;
#X connect 5 1 6 0;
#X connect 5 1 7 0;
#X connect 5 1 8 0;
#X connect 6 0 16 1;
#X connect 7 0 9 1;
#X connect 8 0 9 0;
#X connect 9 0 10 0;
#X connect 10 0 12 0;
#X connect 11 0 14 0;
#X connect 12 0 13 0;
#X connect 12 1 11 1;
#X connect 13 0 11 0;
#X connect 14 0 3 0;
#X connect 15 0 1 0;
#X connect 16 0 15 0;
#X restore 191 483 pd dlyparam;
#X obj 312 511 delread~ \$0-delayline_r 25;
#X obj 103 510 delread~ \$0-delayline_l 25;
#X connect 0 0 1 0;
#X connect 1 0 40 0;
#X connect 3 0 7 0;
#X connect 3 0 8 0;
#X connect 3 0 9 0;
#X connect 4 0 20 0;
#X connect 5 0 16 0;
#X connect 6 0 10 0;
#X connect 7 0 0 0;
#X connect 7 1 13 0;
#X connect 8 0 0 0;
#X connect 8 1 13 0;
#X connect 9 0 0 0;
#X connect 9 1 13 0;
#X connect 10 0 29 0;
#X connect 10 1 27 1;
#X connect 11 0 21 0;
#X connect 12 0 7 1;
#X connect 12 0 8 1;
#X connect 12 0 9 1;
#X connect 13 0 14 0;
#X connect 14 0 42 0;
#X connect 15 0 50 0;
#X connect 16 0 15 0;
#X connect 16 0 18 0;
#X connect 16 1 51 0;
#X connect 17 0 18 1;
#X connect 18 0 24 0;
#X connect 18 0 30 0;
#X connect 19 0 22 0;
#X connect 19 0 23 0;
#X connect 22 0 3 0;
#X connect 23 0 12 0;
#X connect 27 0 28 0;
#X connect 30 0 31 0;
#X connect 33 0 52 0;
#X connect 33 0 53 0;
#X connect 35 0 3 1;
#X connect 35 0 12 1;
#X connect 35 0 34 0;
#X connect 35 1 9 2;
#X connect 35 2 9 3;
#X connect 35 3 9 4;
#X connect 35 4 7 2;
#X connect 35 5 49 0;
#X connect 35 6 7 4;
#X connect 35 7 8 2;
#X connect 35 8 49 1;
#X connect 35 9 8 4;
#X connect 38 0 46 0;
#X connect 38 0 2 0;
#X connect 39 0 47 0;
#X connect 39 0 37 0;
#X connect 40 0 41 0;
#X connect 41 0 38 0;
#X connect 42 0 43 0;
#X connect 43 0 39 0;
#X connect 44 0 39 1;
#X connect 44 0 38 1;
#X connect 45 0 42 1;
#X connect 45 0 40 1;
#X connect 45 1 43 1;
#X connect 45 1 41 1;
#X connect 48 0 36 0;
#X connect 49 0 7 3;
#X connect 49 1 8 3;
#X connect 50 0 25 0;
#X connect 50 1 32 0;
#X connect 50 2 48 0;
#X connect 51 0 17 0;
#X connect 51 0 15 1;
#X connect 51 1 27 0;
#X connect 52 0 0 1;
#X connect 52 0 13 1;
#X connect 53 0 14 1;
#X connect 53 0 1 1;
#X connect 54 0 46 0;
#X connect 54 0 2 0;
#X connect 55 0 47 0;
#X connect 55 0 37 0;
#X connect 56 0 57 0;
#X connect 56 0 58 0;
#X connect 56 1 54 1;
#X connect 56 1 55 1;
#X connect 57 0 55 0;
#X connect 58 0 54 0;
