#N canvas 399 25 455 583 10;
#X obj 145 222 t b f;
#X obj 76 282 f;
#X obj 76 312 /;
#X obj 76 252 -;
#X obj 31 176 f;
#X obj 135 134 t b f f;
#X obj 76 342 +;
#X obj 266 16 inlet;
#X obj 159 70 t b b;
#X obj 145 199 r \$0-ratio;
#X obj 135 14 r \$0-threshold;
#X obj 31 55 env~ 256;
#X obj 31 139 t f f;
#N canvas 639 436 358 251 gainreduc 0;
#X obj 32 94 -;
#X obj 32 114 / 20;
#X obj 32 134 t b f;
#X msg 32 154 10;
#X obj 32 174 pow;
#X obj 32 34 inlet output;
#X obj 47 64 inlet input;
#X obj 32 206 outlet gain-reduction;
#X text 70 172 gr = 20*log10(output - input);
#X connect 0 0 1 0;
#X connect 1 0 2 0;
#X connect 2 0 3 0;
#X connect 2 1 4 1;
#X connect 3 0 4 0;
#X connect 4 0 7 0;
#X connect 5 0 0 0;
#X connect 6 0 0 1;
#X restore 31 393 pd gainreduc;
#X text 108 312 Gain reduction;
#X obj 31 222 moses 70;
#X obj 91 222 t f f;
#X obj 31 93 max;
#X obj 16 456 *~;
#X obj 16 478 outlet~ leftOutput;
#X obj 159 100 f \$1;
#X obj 195 100 f \$2;
#X obj 159 48 loadbang;
#X obj 16 14 inlet~ input;
#X obj 31 372 t a;
#X obj 266 36 hv.dispatch \$0 ratio 1;
#X obj 266 56 hv.dispatch \$0 threshold 70;
#N canvas 0 25 450 300 attackrelease 0;
#X obj 37 37 inlet;
#X obj 39 106 min 1;
#X obj 102 92 f;
#X obj 87 110 -;
#X obj 87 130 > 0;
#X obj 40 196 pack;
#X obj 38 62 t f f b;
#X obj 87 150 * 100;
#X obj 87 170 + 5;
#X obj 40 220 outlet;
#X connect 0 0 6 0;
#X connect 1 0 5 0;
#X connect 2 0 3 1;
#X connect 3 0 4 0;
#X connect 4 0 7 0;
#X connect 5 0 9 0;
#X connect 6 0 1 0;
#X connect 6 1 2 1;
#X connect 6 1 3 0;
#X connect 6 2 2 0;
#X connect 7 0 8 0;
#X connect 8 0 5 1;
#X restore 31 413 pd attackrelease;
#X obj 31 433 line~;
#X connect 0 0 1 0;
#X connect 0 1 2 1;
#X connect 1 0 2 0;
#X connect 2 0 6 0;
#X connect 3 0 1 0;
#X connect 4 0 15 0;
#X connect 5 0 4 0;
#X connect 5 1 15 1;
#X connect 5 2 16 0;
#X connect 6 0 24 0;
#X connect 7 0 25 0;
#X connect 8 0 20 0;
#X connect 8 1 21 0;
#X connect 9 0 0 0;
#X connect 10 0 5 0;
#X connect 11 0 17 0;
#X connect 12 0 4 0;
#X connect 12 1 13 1;
#X connect 13 0 27 0;
#X connect 15 0 24 0;
#X connect 15 1 3 0;
#X connect 16 0 3 1;
#X connect 16 1 6 1;
#X connect 17 0 12 0;
#X connect 18 0 19 0;
#X connect 20 0 5 0;
#X connect 21 0 0 0;
#X connect 22 0 8 0;
#X connect 23 0 18 0;
#X connect 23 0 11 0;
#X connect 24 0 13 0;
#X connect 25 0 26 0;
#X connect 27 0 28 0;
#X connect 28 0 18 1;
