#N canvas 456 45 450 681 10;
#X obj 49 63 inlet~;
#X obj 138 63 inlet~;
#X obj 297 66 inlet~;
#X obj 49 83 sqrt~;
#X obj 182 43 r pd-dsp-started;
#X obj 182 63 samplerate~;
#X obj 154 88 /~;
#X obj 154 108 cos~;
#X obj 208 138 sig~ 1;
#X obj 256 137 *~;
#X obj 228 161 -~;
#X obj 228 184 sqrt~;
#X obj 282 209 /~;
#X obj 298 99 *~ 2;
#X text 317 210 alfa;
#X text 92 82 A;
#X obj 282 258 /~;
#X obj 198 256 *~;
#X obj 117 247 sig~ 1;
#X obj 182 294 -~;
#X obj 268 293 -~;
#X obj 145 294 +~ 1;
#X obj 232 295 +~ 1;
#X obj 76 350 /~;
#X obj 170 348 /~;
#X obj 200 348 /~;
#X obj 247 347 /~;
#X obj 67 520 outlet~;
#X obj 119 519 outlet~;
#X obj 169 519 outlet~;
#X obj 219 519 outlet~;
#X obj 108 393 /~;
#X obj 159 392 /~;
#X text 105 351 a1;
#X text 172 331 g;
#X text 133 392 b1;
#X text 184 391 b2;
#X text 274 346 a2;
#X text 354 210 0<x<1;
#X text 331 101 .5<x;
#X text 24 321 -1<x<1;
#X obj 16 521 outlet~;
#X obj 271 520 outlet~;
#X obj 323 519 outlet~;
#X obj 373 519 outlet~;
#X obj 423 519 outlet~;
#N canvas 0 25 450 300 rootsa 0;
#X obj 110 66 inlet~;
#X obj 255 64 inlet~;
#X obj 86 273 outlet~;
#X obj 267 274 outlet~;
#X obj 155 116 *~;
#X obj 282 138 -~;
#X obj 300 185 sqrt~;
#X obj 300 165 abs~;
#X obj 134 273 outlet~;
#X obj 317 274 outlet~;
#X obj 316 238 *~ -1;
#X connect 0 0 4 1;
#X connect 0 0 4 0;
#X connect 0 0 2 0;
#X connect 0 0 3 0;
#X connect 1 0 5 1;
#X connect 4 0 5 0;
#X connect 5 0 7 0;
#X connect 6 0 10 0;
#X connect 6 0 8 0;
#X connect 7 0 6 0;
#X connect 10 0 9 0;
#X restore 117 437 pd rootsa;
#N canvas 0 25 450 300 rootsb 0;
#X obj 110 66 inlet~;
#X obj 255 64 inlet~;
#X obj 86 273 outlet~;
#X obj 267 274 outlet~;
#X obj 155 116 *~;
#X obj 282 138 -~;
#X obj 300 185 sqrt~;
#X obj 300 165 abs~;
#X obj 134 273 outlet~;
#X obj 317 274 outlet~;
#X obj 316 218 *~;
#X obj 239 218 *~;
#X obj 191 179 hv.gt~;
#X obj 246 182 hv.lt~;
#X obj 221 141 sig~ 0;
#X obj 316 238 *~ -1;
#X obj 222 258 -~;
#X connect 0 0 4 1;
#X connect 0 0 4 0;
#X connect 0 0 2 0;
#X connect 0 0 16 0;
#X connect 1 0 5 1;
#X connect 4 0 5 0;
#X connect 5 0 7 0;
#X connect 5 0 13 0;
#X connect 5 0 12 0;
#X connect 6 0 10 1;
#X connect 6 0 11 1;
#X connect 7 0 6 0;
#X connect 10 0 15 0;
#X connect 10 0 8 0;
#X connect 11 0 16 1;
#X connect 11 0 2 0;
#X connect 12 0 11 0;
#X connect 13 0 10 0;
#X connect 14 0 12 1;
#X connect 14 0 13 1;
#X connect 15 0 9 0;
#X connect 16 0 3 0;
#X restore 274 437 pd rootsb;
#X text 264 177 0<x<1 för relevanta värden \, upp till f(nyqvist)
;
#X connect 0 0 3 0;
#X connect 1 0 6 0;
#X connect 2 0 13 0;
#X connect 3 0 16 1;
#X connect 3 0 17 1;
#X connect 4 0 5 0;
#X connect 5 0 6 1;
#X connect 6 0 7 0;
#X connect 7 0 9 0;
#X connect 7 0 9 1;
#X connect 7 0 23 0;
#X connect 8 0 10 0;
#X connect 9 0 10 1;
#X connect 10 0 11 0;
#X connect 11 0 12 0;
#X connect 12 0 16 0;
#X connect 12 0 17 0;
#X connect 13 0 12 1;
#X connect 16 0 20 1;
#X connect 16 0 22 0;
#X connect 17 0 19 1;
#X connect 17 0 21 0;
#X connect 18 0 19 0;
#X connect 18 0 20 0;
#X connect 19 0 25 0;
#X connect 20 0 26 0;
#X connect 21 0 24 0;
#X connect 21 0 31 1;
#X connect 21 0 32 1;
#X connect 22 0 23 1;
#X connect 22 0 25 1;
#X connect 22 0 26 1;
#X connect 22 0 24 1;
#X connect 23 0 31 0;
#X connect 23 0 46 0;
#X connect 24 0 41 0;
#X connect 25 0 32 0;
#X connect 26 0 46 1;
#X connect 31 0 47 0;
#X connect 32 0 47 1;
#X connect 46 0 27 0;
#X connect 46 1 28 0;
#X connect 46 2 29 0;
#X connect 46 3 30 0;
#X connect 47 0 42 0;
#X connect 47 1 43 0;
#X connect 47 2 44 0;
#X connect 47 3 45 0;
