#N canvas 653 46 450 300 10;
#X obj 49 38 inlet~;
#X obj 224 38 inlet~;
#X obj 274 38 inlet~;
#X obj 344 39 inlet~;
#X obj 225 65 peakparams, f 21;
#X obj 209 165 peakfilters, f 25;
#X obj 209 185 outlet~;
#X obj 46 165 peakfilters, f 25;
#X obj 46 185 outlet~;
#X obj 99 39 inlet~;
#X connect 0 0 7 0;
#X connect 1 0 4 0;
#X connect 2 0 4 1;
#X connect 3 0 4 2;
#X connect 4 0 5 1;
#X connect 4 0 7 1;
#X connect 4 1 5 2;
#X connect 4 1 7 2;
#X connect 4 2 5 3;
#X connect 4 2 7 3;
#X connect 4 3 5 4;
#X connect 4 3 7 4;
#X connect 4 4 5 5;
#X connect 4 4 7 5;
#X connect 4 5 5 6;
#X connect 4 5 7 6;
#X connect 4 6 5 7;
#X connect 4 6 7 7;
#X connect 4 7 5 8;
#X connect 4 7 7 8;
#X connect 4 8 5 9;
#X connect 4 8 7 9;
#X connect 5 0 6 0;
#X connect 7 0 8 0;
#X connect 9 0 5 0;
