#N canvas 0 25 630 300 10;
#X obj 43 35 inlet~;
#X obj 91 35 inlet~;
#X obj 141 35 inlet~;
#X obj 189 35 inlet~;
#X obj 241 35 inlet~;
#X obj 289 35 inlet~;
#X obj 339 35 inlet~;
#X obj 387 35 inlet~;
#X obj 436 35 inlet~;
#X obj 484 35 inlet~;
#X obj 63 81 *~;
#X obj 77 119 cpole~;
#X obj 102 152 cpole~;
#X obj 127 181 czero~;
#X obj 151 211 czero~;
#X obj 151 231 outlet~;
#X connect 0 0 10 0;
#X connect 1 0 10 1;
#X connect 2 0 11 2;
#X connect 3 0 11 3;
#X connect 4 0 12 2;
#X connect 5 0 12 3;
#X connect 6 0 13 2;
#X connect 7 0 13 3;
#X connect 8 0 14 2;
#X connect 9 0 14 3;
#X connect 10 0 11 0;
#X connect 11 0 12 0;
#X connect 11 1 12 1;
#X connect 12 0 13 0;
#X connect 12 1 13 1;
#X connect 13 0 14 0;
#X connect 13 1 14 1;
#X connect 14 0 15 0;
