#N canvas 612 331 450 300 10;
#X obj 55 93 cpole~;
#X obj 55 139 cpole~;
#X obj 55 166 rzero~;
#X obj 56 194 rzero~;
#X obj 57 223 outlet~;
#X obj 55 55 *~;
#X obj 55 14 inlet~;
#X obj 70 34 inlet~;
#X obj 83 55 inlet~;
#X obj 97 74 inlet~;
#X obj 117 93 inlet~;
#X obj 136 117 inlet~;
#X obj 156 136 inlet~;
#X connect 0 0 1 0;
#X connect 0 1 1 1;
#X connect 1 0 2 0;
#X connect 2 0 3 0;
#X connect 3 0 4 0;
#X connect 5 0 0 0;
#X connect 6 0 5 0;
#X connect 7 0 5 1;
#X connect 8 0 0 2;
#X connect 8 0 1 2;
#X connect 9 0 0 3;
#X connect 10 0 1 3;
#X connect 11 0 2 1;
#X connect 12 0 3 1;
