#N canvas 101 33 483 672 10;
#X obj 24 49 inlet~;
#X obj 166 48 inlet~;
#X obj 247 49 inlet~;
#X obj 118 47 inlet~;
#X obj 28 130 resonfilters;
#X obj 28 168 outlet~;
#N canvas 0 25 450 300 resonparams 0;
#X obj 172 85 samplerate~;
#X msg 250 84 1;
#X obj 250 104 atan;
#X obj 250 124 * 8;
#X obj 207 48 t b b;
#X obj 207 28 r pd-dsp-started;
#X obj 235 207 exp~;
#X obj 152 187 cos~;
#X obj 113 276 *~;
#X obj 236 348 *~ -1;
#X obj 105 320 sqrt~;
#X obj 170 349 *~ -1;
#X obj 98 296 -~;
#X obj 105 113 inlet~;
#X obj 249 150 inlet~;
#X obj 236 187 /~;
#X obj 176 245 /~;
#X obj 96 251 pow~ -2;
#X obj 152 151 /~;
#X obj 188 171 *~;
#X obj 238 317 pow~ -0.5;
#X obj 138 295 outlet~;
#X obj 169 380 outlet~;
#X obj 225 379 outlet~;
#X obj 294 380 outlet~;
#X obj 349 381 outlet~;
#X connect 0 0 18 1;
#X connect 1 0 2 0;
#X connect 2 0 3 0;
#X connect 3 0 19 1;
#X connect 4 0 0 0;
#X connect 4 1 1 0;
#X connect 5 0 4 0;
#X connect 6 0 16 1;
#X connect 6 0 17 0;
#X connect 6 0 20 0;
#X connect 7 0 16 0;
#X connect 8 0 12 1;
#X connect 9 0 25 0;
#X connect 10 0 11 0;
#X connect 10 0 22 0;
#X connect 11 0 23 0;
#X connect 12 0 10 0;
#X connect 13 0 18 0;
#X connect 14 0 15 1;
#X connect 15 0 6 0;
#X connect 16 0 8 0;
#X connect 16 0 8 1;
#X connect 16 0 21 0;
#X connect 17 0 12 0;
#X connect 18 0 7 0;
#X connect 18 0 19 0;
#X connect 19 0 15 0;
#X connect 20 0 9 0;
#X connect 20 0 24 0;
#X restore 165 75 pd resonparams;
#X obj 74 46 inlet~;
#X obj 152 133 resonfilters;
#X obj 150 165 outlet~;
#X connect 0 0 4 0;
#X connect 1 0 6 0;
#X connect 2 0 6 1;
#X connect 3 0 4 1;
#X connect 3 0 8 1;
#X connect 4 0 5 0;
#X connect 6 0 4 2;
#X connect 6 0 8 2;
#X connect 6 1 4 3;
#X connect 6 1 8 3;
#X connect 6 2 4 4;
#X connect 6 2 8 4;
#X connect 6 3 4 5;
#X connect 6 3 8 5;
#X connect 6 4 4 6;
#X connect 6 4 8 6;
#X connect 7 0 8 0;
#X connect 8 0 9 0;
